<?xml version="1.0" standalone="no"?><!DOCTYPE svg PUBLIC "-//W3C//DTD SVG 1.1//EN" "http://www.w3.org/Graphics/SVG/1.1/DTD/svg11.dtd"><svg t="1605883049981" class="icon" viewBox="0 0 1024 1024" version="1.1" xmlns="http://www.w3.org/2000/svg" p-id="11881" xmlns:xlink="http://www.w3.org/1999/xlink" width="200" height="200"><defs><style type="text/css"></style></defs><path d="M467.136 154.667l-1.856 1.834c-162.624 20.694-291.712 149.12-313.173 311.616l-1.814 1.835-42.197 6.187v79.21l41.941 5.227 1.856 1.835c20.95 164.202 151.723 293.973 316.16 313.557l1.878 1.813 6.229 42.39h79.19l5.397-43.35 1.813-1.856c161.536-22.826 288.597-152 308.587-314.069l1.813-1.856 47.21-6.933v-79.19l-47.978-5.973-1.856-1.813c-22.485-159.979-149.397-286.358-309.483-308.182l-1.834-1.813-6.912-47.04h-79.19l-5.781 46.57zM113.856 430.72a407.04 407.04 0 0 1 313.365-312.47l2.176-17.471A41.963 41.963 0 0 1 471.02 64h82.944c20.821 0 38.485 15.253 41.514 35.84l2.774 18.987a407.04 407.04 0 0 1 309.93 308.16l19.307 2.41c21.013 2.603 36.779 20.459 36.779 41.622v82.944c0 20.821-15.254 38.485-35.84 41.514l-18.752 2.752a407.04 407.04 0 0 1-308.971 314.56l-1.835 14.699a41.963 41.963 0 0 1-41.621 36.779h-82.944a41.963 41.963 0 0 1-41.515-35.84l-2.026-13.803c-158.507-31.915-283.712-155.968-317.12-314.155l-12.864-1.6A41.963 41.963 0 0 1 64 557.248v-82.944c0-20.821 15.253-38.485 35.84-41.515l14.016-2.048z" p-id="11882" fill="#1296db"></path><path d="M512 810.667c-92.16 0-178.261-42.112-234.965-114.262A297.43 297.43 0 0 1 213.333 512c0-55.979 15.467-110.123 44.715-157.27A298.453 298.453 0 0 1 512 213.334c103.53 0 198.89 53.248 253.504 140.672A297.344 297.344 0 0 1 810.667 512c0 67.499-22.507 132.139-64 184.768A298.112 298.112 0 0 1 512 810.667zM512 768c78.89 0 152.533-35.947 201.173-97.643A254.763 254.763 0 0 0 768 512c0-48.277-13.376-94.848-38.699-135.403A255.787 255.787 0 0 0 512 256a255.787 255.787 0 0 0-217.707 121.237A254.677 254.677 0 0 0 256 512c0 57.75 19.179 112.96 54.592 158.037A255.467 255.467 0 0 0 512 768z" p-id="11883" fill="#1296db"></path><path d="M454.677 598.08h-14.784a10.667 10.667 0 0 1-10.026-7.061l-9.536-26.496h-58.518l-9.344 26.453a10.667 10.667 0 0 1-10.048 7.104H328a10.667 10.667 0 0 1-10.027-14.336l51.158-139.733a10.667 10.667 0 0 1 10.026-7.019h25.387a10.667 10.667 0 0 1 10.027 7.061l50.154 139.734A10.667 10.667 0 0 1 454.7 598.08z m-42.453-63.445l-19.115-58.944c-1.173-3.542-2.624-4.374-4.053 0l-19.776 58.944h42.944z m112.299 7.296v45.482a10.667 10.667 0 0 1-10.667 10.667h-12.97a10.667 10.667 0 0 1-10.667-10.667V447.68a10.667 10.667 0 0 1 10.666-10.667h44.758c40.064 0 57.258 21.675 57.258 50.944 0 14.336-3.2 29.718-15.317 39.68-12.096 9.942-27.221 14.699-45.376 14.294h-17.685z m0-75.307v45.59h14.869c20.181 0 33.365-5.377 33.365-22.913 0-17.13-13.077-22.698-33.066-22.698h-15.147z m153.6-2.901h-3.158v107.626h3.158a10.667 10.667 0 0 1 10.666 10.667v5.397a10.667 10.667 0 0 1-10.666 10.667h-40.427a10.667 10.667 0 0 1-10.667-10.667v-5.397a10.667 10.667 0 0 1 10.667-10.667h2.944V463.723h-2.944a10.667 10.667 0 0 1-10.667-10.667v-5.397a10.667 10.667 0 0 1 10.667-10.667h40.427a10.667 10.667 0 0 1 10.666 10.667v5.397a10.667 10.667 0 0 1-10.666 10.667z" p-id="11884" fill="#1296db"></path></svg>